
          <svg data-logo="logo" xmlns="http://www.w3.org/2000/svg" viewBox="0 0 703 48">
            <g id="logogram" transform="translate(0, 7) rotate(0)"><path d="M16.0573 0H37.1389L21.6397 22.9729H0.558105L16.0573 0Z" fill="#007AFF"/><path d="M16.9805 25.102L10.9773 34H33.0589L48.5581 11.0271H32.2605L22.7645 25.102H16.9805Z" fill="#312ECB"/></g>
            <g id="logotype" transform="translate(55, 1)"><path fill="#1d1b1b" d="M23.40 41.81L23.40 41.81Q23.40 43.48 22.42 44.24Q21.44 45 19.86 45L19.86 45L11.39 45Q9.81 45 8.81 44.25Q7.82 43.51 7.82 41.81L7.82 41.81Q7.82 40.40 8.56 39.71Q9.31 39.02 10.22 38.17L10.22 38.17Q11.04 37.41 11.45 36.47Q11.86 35.54 12.21 34.51L12.21 34.51L18.86 14.56Q19.04 14.06 19.20 13.55Q19.36 13.04 19.36 12.48L19.36 12.48Q19.36 11.81 18.91 11.43Q18.45 11.04 17.87 10.65Q17.28 10.25 16.83 9.58Q16.37 8.91 16.37 7.65L16.37 7.65Q16.37 5.98 17.35 5.21Q18.33 4.45 19.92 4.45L19.92 4.45L41.01 4.45Q42.59 4.45 43.57 5.20Q44.55 5.95 44.55 7.65L44.55 7.65Q44.55 8.85 44.14 9.51Q43.73 10.17 43.21 10.55Q42.68 10.93 42.27 11.34Q41.86 11.75 41.86 12.45L41.86 12.45Q41.86 12.95 41.99 13.43Q42.12 13.92 42.27 14.38L42.27 14.38L48.33 32.11Q48.80 33.49 49.08 34.60Q49.36 35.71 49.92 36.67Q50.47 37.62 51.73 38.58L51.73 38.58Q52.73 39.32 53.14 39.92Q53.55 40.52 53.55 41.81L53.55 41.81Q53.55 43.51 52.57 44.25Q51.59 45 50.00 45L50.00 45L35.03 45Q33.45 45 32.46 44.25Q31.46 43.51 31.46 41.81L31.46 41.81Q31.46 40.61 31.97 39.93Q32.48 39.26 33.17 38.86Q33.86 38.47 34.37 38.13Q34.89 37.79 34.89 37.29L34.89 37.29Q34.89 36.88 34.78 36.47Q34.68 36.06 34.54 35.68L34.54 35.68L33.60 32.70L19.89 32.70L19.74 33.11Q19.51 33.81 19.13 34.67Q18.74 35.54 18.74 36.27L18.74 36.27Q18.74 37.09 19.45 37.60Q20.15 38.12 21.07 38.60Q22.00 39.08 22.70 39.81Q23.40 40.55 23.40 41.81ZM26.83 11.48L22.03 26.16L31.52 26.16L26.83 11.48ZM75.23 14.03L75.23 14.03L75.23 35.42Q75.23 36.68 75.81 37.28Q76.40 37.88 77.19 38.33Q77.98 38.79 78.57 39.52Q79.15 40.25 79.15 41.81L79.15 41.81Q79.15 43.48 78.19 44.24Q77.22 45 75.64 45L75.64 45L60.40 45Q58.82 45 57.86 44.24Q56.89 43.48 56.89 41.81L56.89 41.81Q56.89 40.28 57.47 39.55Q58.06 38.82 58.85 38.36Q59.64 37.91 60.23 37.29Q60.81 36.68 60.81 35.42L60.81 35.42L60.81 14.03Q60.81 12.77 60.23 12.16Q59.64 11.54 58.85 11.09Q58.06 10.63 57.47 9.90Q56.89 9.17 56.89 7.65L56.89 7.65Q56.89 5.98 57.86 5.21Q58.82 4.45 60.40 4.45L60.40 4.45L75.64 4.45Q77.22 4.45 78.19 5.21Q79.15 5.98 79.15 7.65L79.15 7.65Q79.15 9.17 78.57 9.90Q77.98 10.63 77.19 11.09Q76.40 11.54 75.81 12.16Q75.23 12.77 75.23 14.03ZM84.63 24.84L84.63 24.84L95.36 24.84Q96.21 24.84 96.81 25.24Q97.41 25.63 97.41 26.57L97.41 26.57Q97.41 27.22 97.19 27.86Q96.97 28.51 96.79 29.15L96.79 29.15Q96.53 30.09 96.18 31.07Q95.82 32.05 95.18 32.71Q94.54 33.37 93.30 33.37L93.30 33.37L82.55 33.37Q81.70 33.37 81.10 32.97Q80.50 32.58 80.50 31.64L80.50 31.64Q80.50 30.82 80.75 30.06Q81 29.30 81.29 28.56L81.29 28.56L81.29 28.51Q81.41 28.33 81.47 27.98L81.47 27.98Q81.70 26.75 82.48 25.80Q83.26 24.84 84.63 24.84ZM110.88 41.69L110.88 41.69Q110.88 43.36 109.93 44.18Q108.98 45 107.37 45L107.37 45L100.80 45Q99.22 45 98.27 44.24Q97.32 43.48 97.32 41.81L97.32 41.81Q97.32 40.40 97.86 39.71Q98.40 39.02 99.15 38.57Q99.90 38.12 100.48 37.46Q101.07 36.80 101.16 35.45L101.16 35.45L102.62 14.00L102.62 13.74Q102.62 12.63 102.04 12.06Q101.45 11.48 100.69 11.02Q99.93 10.55 99.34 9.80Q98.75 9.05 98.75 7.65L98.75 7.65Q98.75 6.01 99.72 5.23Q100.69 4.45 102.24 4.45L102.24 4.45L112.64 4.45Q115.57 4.45 117.06 6.15Q118.56 7.85 119.41 10.37L119.41 10.37L124.18 24.40L128.84 10.37Q129.69 7.76 131.19 6.11Q132.68 4.45 135.67 4.45L135.67 4.45L146.24 4.45Q147.83 4.45 148.79 5.21Q149.76 5.98 149.76 7.65L149.76 7.65Q149.76 9.02 149.17 9.80Q148.59 10.58 147.81 11.07Q147.04 11.57 146.45 12.11Q145.86 12.66 145.86 13.59L145.86 13.59L145.86 13.74L147.09 35.42Q147.18 36.86 147.72 37.49Q148.27 38.12 148.94 38.50Q149.61 38.88 150.13 39.51Q150.64 40.14 150.64 41.60L150.64 41.60Q150.64 43.24 149.72 44.12Q148.79 45 147.15 45L147.15 45L132.50 45Q130.92 45 129.97 44.24Q129.02 43.48 129.02 41.81L129.02 41.81Q129.02 40.49 129.60 39.71Q130.19 38.94 130.97 38.42Q131.74 37.91 132.33 37.38Q132.91 36.86 132.91 35.98L132.91 35.98L132.91 35.80L131.92 21.86L125.94 39.08Q125.50 40.37 124.87 41.59Q124.24 42.80 123.25 43.58Q122.25 44.36 120.67 44.36L120.67 44.36Q118.65 44.36 117.68 43.65Q116.71 42.95 115.78 41.25L115.78 41.25Q115.10 40.05 114.66 38.76L114.66 38.76L108.57 21.53L107.63 35.45L107.63 35.68Q107.63 36.68 108.13 37.31Q108.63 37.94 109.26 38.47Q109.89 38.99 110.38 39.73Q110.88 40.46 110.88 41.69ZM168.83 14.06L168.83 14.06Q173.67 14.06 177.31 16.05Q180.96 18.05 183.01 21.65Q185.06 25.25 185.06 30.12L185.06 30.12Q185.06 34.89 182.81 38.42Q180.55 41.95 176.76 43.90Q172.96 45.85 168.33 45.85L168.33 45.85Q163.47 45.85 159.81 43.84Q156.15 41.84 154.11 38.19Q152.07 34.54 152.07 29.68L152.07 29.68Q152.07 24.93 154.36 21.42Q156.64 17.90 160.45 15.98Q164.26 14.06 168.83 14.06ZM170.50 39.38L170.50 39.38Q171.23 39.38 171.54 38.61Q171.85 37.85 171.94 36.93Q172.03 36.01 172.03 35.51L172.03 35.51Q172.03 33.84 171.76 32.18Q171.50 30.53 171.09 28.92L171.09 28.92Q170.94 28.27 170.53 26.91Q170.12 25.55 169.54 24.05Q168.95 22.56 168.25 21.50Q167.54 20.45 166.75 20.45L166.75 20.45Q166.08 20.45 165.77 21.21Q165.46 21.97 165.38 22.90Q165.29 23.82 165.29 24.29L165.29 24.29Q165.29 25.08 165.52 26.82Q165.76 28.56 166.21 30.70Q166.66 32.84 167.31 34.82Q167.95 36.80 168.76 38.09Q169.56 39.38 170.50 39.38ZM216.70 23.67L216.70 23.67Q216.70 26.43 214.71 27.86Q212.72 29.30 210.20 29.30L210.20 29.30Q207.62 29.30 206.07 27.89Q204.52 26.48 204.52 23.85L204.52 23.85Q204.52 22.65 204.21 21.42Q203.90 20.19 202.29 20.19L202.29 20.19Q201.06 20.19 200.41 21.39Q199.77 22.59 199.55 24.08Q199.33 25.58 199.33 26.48L199.33 26.48Q199.33 29.00 200.15 31.29Q200.97 33.57 202.76 35.00Q204.54 36.42 207.39 36.42L207.39 36.42Q209.06 36.42 210.70 35.61Q212.34 34.80 213.60 34.01Q214.86 33.22 215.36 33.22L215.36 33.22Q216.26 33.22 216.56 33.94Q216.85 34.66 216.85 35.36L216.85 35.36Q216.85 38.00 215.60 39.96Q214.36 41.92 212.32 43.23Q210.29 44.53 207.90 45.19Q205.51 45.85 203.23 45.85L203.23 45.85Q198.83 45.85 195.33 43.96Q191.83 42.07 189.79 38.67Q187.76 35.27 187.76 30.82L187.76 30.82Q187.76 25.99 189.72 22.21Q191.68 18.43 195.30 16.25Q198.92 14.06 203.84 14.06L203.84 14.06Q206.04 14.06 208.29 14.60Q210.55 15.15 212.46 16.30Q214.36 17.46 215.53 19.29Q216.70 21.12 216.70 23.67ZM236.65 45L236.65 45L222.80 45Q221.54 45 220.67 44.34Q219.81 43.68 219.81 42.33L219.81 42.33Q219.81 41.34 220.26 40.74Q220.72 40.14 221.48 39.61L221.48 39.61Q222.30 39.02 222.65 38.69Q223.00 38.35 223.09 37.85Q223.18 37.35 223.18 36.36L223.18 36.36L223.18 12.80Q223.18 11.72 223.02 11.25Q222.86 10.78 222.40 10.53Q221.95 10.28 221.04 9.84L221.04 9.84Q220.31 9.49 219.84 8.91Q219.37 8.32 219.37 7.50L219.37 7.50Q219.37 6.33 220.16 5.67Q220.95 5.01 221.92 4.66L221.92 4.66L228.80 2.11Q230.00 1.67 231.23 1.30Q232.46 0.94 233.72 0.94L233.72 0.94Q234.96 0.94 235.66 1.73Q236.36 2.52 236.36 3.72L236.36 3.72L236.36 27.54L242.98 22.27Q243.22 22.09 243.50 21.86Q243.77 21.62 243.77 21.33L243.77 21.33Q243.77 20.80 243.07 20.45Q242.37 20.10 241.66 19.50Q240.96 18.90 240.96 17.64L240.96 17.64Q240.96 16.26 241.83 15.63Q242.69 15 243.95 15L243.95 15L256.05 15Q257.31 15 258.17 15.63Q259.04 16.26 259.04 17.64L259.04 17.64Q259.04 19.31 257.97 19.94Q256.90 20.57 255.52 20.92L255.52 20.92Q253.88 21.33 252.56 21.83Q251.24 22.32 249.90 23.44L249.90 23.44L248.20 24.81L257.87 37.12Q258.51 37.91 259.58 38.72Q260.65 39.52 261.53 40.43Q262.41 41.34 262.41 42.48L262.41 42.48Q262.41 43.80 261.53 44.40Q260.65 45 259.45 45L259.45 45L245.41 45Q244.21 45 243.48 44.27Q242.75 43.54 242.75 42.33L242.75 42.33Q242.75 41.19 243.41 40.63Q244.07 40.08 244.71 39.71Q245.36 39.35 245.36 38.82L245.36 38.82Q245.36 38.32 245.05 37.94Q244.74 37.56 244.45 37.24L244.45 37.24L239.76 31.64L236.36 34.39L236.36 36.18Q236.36 37.12 236.45 38.03Q236.54 38.94 237.36 39.61L237.36 39.61Q238.21 40.25 238.76 40.66Q239.32 41.07 239.32 42.33L239.32 42.33Q239.32 45 236.65 45ZM265.25 24.84L265.25 24.84L275.97 24.84Q276.82 24.84 277.42 25.24Q278.02 25.63 278.02 26.57L278.02 26.57Q278.02 27.22 277.80 27.86Q277.58 28.51 277.41 29.15L277.41 29.15Q277.14 30.09 276.79 31.07Q276.44 32.05 275.79 32.71Q275.15 33.37 273.92 33.37L273.92 33.37L263.17 33.37Q262.32 33.37 261.72 32.97Q261.12 32.58 261.12 31.64L261.12 31.64Q261.12 30.82 261.37 30.06Q261.62 29.30 261.91 28.56L261.91 28.56L261.91 28.51Q262.03 28.33 262.08 27.98L262.08 27.98Q262.32 26.75 263.09 25.80Q263.87 24.84 265.25 24.84ZM297.71 14.03L297.71 14.03L297.71 35.42Q297.71 36.68 298.29 37.28Q298.88 37.88 299.67 38.33Q300.46 38.79 301.05 39.52Q301.63 40.25 301.63 41.81L301.63 41.81Q301.63 43.48 300.67 44.24Q299.70 45 298.12 45L298.12 45L282.88 45Q281.30 45 280.34 44.24Q279.37 43.48 279.37 41.81L279.37 41.81Q279.37 40.28 279.96 39.55Q280.54 38.82 281.33 38.36Q282.12 37.91 282.71 37.29Q283.29 36.68 283.29 35.42L283.29 35.42L283.29 14.03Q283.29 12.77 282.71 12.16Q282.12 11.54 281.33 11.09Q280.54 10.63 279.96 9.90Q279.37 9.17 279.37 7.65L279.37 7.65Q279.37 5.98 280.34 5.21Q281.30 4.45 282.88 4.45L282.88 4.45L298.12 4.45Q299.70 4.45 300.67 5.21Q301.63 5.98 301.63 7.65L301.63 7.65Q301.63 9.17 301.05 9.90Q300.46 10.63 299.67 11.09Q298.88 11.54 298.29 12.16Q297.71 12.77 297.71 14.03ZM317.89 14.06L317.89 14.06Q319.10 14.06 319.73 14.90Q320.36 15.73 320.36 16.85L320.36 16.85L320.36 19.54Q322.67 17.40 325.45 15.73Q328.24 14.06 330.96 14.06L330.96 14.06Q333.80 14.06 335.68 15.47Q337.55 16.88 338.50 19.13Q339.46 21.39 339.46 23.99L339.46 23.99L339.46 36.18Q339.46 37.00 339.53 37.79Q339.60 38.58 340.16 39.29L340.16 39.29Q340.83 40.14 341.35 40.61Q341.86 41.07 341.86 42.33L341.86 42.33Q341.86 43.62 341.07 44.31Q340.28 45 339.02 45L339.02 45L326.77 45Q325.54 45 324.88 44.27Q324.22 43.54 324.22 42.33L324.22 42.33Q324.22 41.22 324.74 40.59Q325.25 39.96 325.76 39.27Q326.27 38.58 326.27 37.32L326.27 37.32L326.27 27.16Q326.27 25.78 325.73 24.46Q325.19 23.14 323.49 23.14L323.49 23.14Q322.46 23.14 321.73 23.54Q321 23.94 320.36 24.55L320.36 24.55L320.36 36.53Q320.36 37.32 320.41 38.13Q320.47 38.94 321 39.61L321 39.61Q321.62 40.34 322.03 40.80Q322.44 41.25 322.44 42.33L322.44 42.33Q322.44 43.54 321.78 44.27Q321.12 45 319.89 45L319.89 45L307.64 45Q306.38 45 305.59 44.31Q304.80 43.62 304.80 42.33L304.80 42.33Q304.80 41.37 305.17 40.83Q305.53 40.28 306 39.81Q306.47 39.35 306.83 38.67Q307.20 38.00 307.20 36.83L307.20 36.83L307.20 25.96Q307.20 24.64 306.79 23.96Q306.38 23.29 305.82 22.90Q305.27 22.50 304.86 22.03Q304.45 21.56 304.45 20.63L304.45 20.63Q304.45 19.48 305.21 18.82Q305.97 18.16 306.91 17.78L306.91 17.78L313.24 15.23Q314.35 14.77 315.51 14.41Q316.66 14.06 317.89 14.06ZM358.15 45.85L358.15 45.85Q353.14 45.85 350.25 43.52Q347.37 41.19 347.37 35.92L347.37 35.92L347.37 23.17Q347.37 21.91 346.81 21.30Q346.25 20.68 345.52 20.29Q344.79 19.89 344.23 19.32Q343.68 18.75 343.68 17.58L343.68 17.58Q343.68 16.38 344.53 15.69Q345.38 15 346.52 15L346.52 15L347.84 15Q348.69 15 349.52 14.14Q350.36 13.27 351.22 11.98Q352.08 10.69 353.04 9.42Q353.99 8.14 355.07 7.28Q356.16 6.42 357.45 6.42L357.45 6.42Q358.91 6.42 359.73 7.24Q360.55 8.06 360.55 9.52L360.55 9.52L360.55 15L367.20 15Q368.31 15 369.11 15.53Q369.90 16.05 369.90 17.29L369.90 17.29Q369.90 18.93 368.86 19.78Q367.82 20.63 366.35 20.90Q364.89 21.18 363.60 21.18L363.60 21.18L360.55 21.18L360.55 32.78Q360.55 34.22 361.11 35.49Q361.66 36.77 363.39 36.77L363.39 36.77Q364.54 36.77 365.34 36.11Q366.15 35.45 366.86 34.80Q367.58 34.16 368.40 34.16L368.40 34.16Q369.16 34.16 369.47 34.89Q369.78 35.63 369.78 36.21L369.78 36.21Q369.78 39.17 367.99 41.34Q366.21 43.51 363.52 44.68Q360.84 45.85 358.15 45.85ZM401.21 25.63L401.21 25.63Q401.21 28.24 399.68 29.59Q398.14 30.94 395.62 30.94L395.62 30.94L383.81 30.94Q384.49 33.46 386.21 35.17Q387.94 36.88 391.20 36.88L391.20 36.88Q392.48 36.88 393.76 36.34Q395.03 35.80 396.16 35.07Q397.29 34.34 398.14 33.79Q398.99 33.25 399.43 33.25L399.43 33.25Q400.28 33.25 400.66 33.85Q401.04 34.45 401.04 35.21L401.04 35.21Q401.04 37.88 399.79 39.89Q398.55 41.89 396.51 43.21Q394.48 44.53 392.06 45.19Q389.64 45.85 387.30 45.85L387.30 45.85Q382.70 45.85 379.18 43.95Q375.67 42.04 373.69 38.60Q371.71 35.16 371.71 30.50L371.71 30.50Q371.71 25.52 373.63 21.83Q375.55 18.13 379.15 16.10Q382.76 14.06 387.80 14.06L387.80 14.06Q391.28 14.06 394.34 15.38Q397.41 16.70 399.31 19.28Q401.21 21.86 401.21 25.63ZM383.29 26.43L383.29 26.43Q383.29 26.75 383.29 27.07L383.29 27.07L386.33 27.07Q387.45 27.07 387.86 26.56Q388.27 26.04 388.27 24.99L388.27 24.99Q388.27 24.29 388.09 23.14Q387.91 22.00 387.40 21.09Q386.89 20.19 385.92 20.19L385.92 20.19Q385.04 20.19 384.52 20.90Q383.99 21.62 383.72 22.69Q383.46 23.76 383.37 24.79Q383.29 25.81 383.29 26.43ZM419.73 27.63L419.73 27.63L419.73 36.18Q419.73 37.88 420.13 38.47Q420.52 39.05 422.22 39.40L422.22 39.40Q423.71 39.70 424.61 40.09Q425.50 40.49 425.50 42.33L425.50 42.33Q425.50 43.65 424.71 44.33Q423.92 45 422.63 45L422.63 45L407.16 45Q405.90 45 405.08 44.33Q404.26 43.65 404.26 42.33L404.26 42.33Q404.26 41.28 404.66 40.75Q405.05 40.22 405.57 39.80Q406.08 39.38 406.47 38.69Q406.87 38.00 406.87 36.59L406.87 36.59L406.87 25.96Q406.87 24.64 406.42 23.98Q405.96 23.32 405.39 22.94Q404.82 22.56 404.36 22.08Q403.91 21.59 403.91 20.63L403.91 20.63Q403.91 19.48 404.66 18.82Q405.40 18.16 406.37 17.78L406.37 17.78L413.70 14.88Q414.40 14.59 415.13 14.33Q415.86 14.06 416.65 14.06L416.65 14.06Q417.68 14.06 418.18 14.84Q418.68 15.62 418.87 16.63Q419.06 17.64 419.14 18.40L419.14 18.40Q419.23 18.93 419.32 19.45Q419.41 19.98 419.47 20.51L419.47 20.51Q420.38 17.81 422.26 15.94Q424.15 14.06 427.49 14.06L427.49 14.06Q429.87 14.06 431.23 15.23Q432.59 16.41 433.18 18.24Q433.76 20.07 433.76 22.12L433.76 22.12Q433.76 24.02 433.27 25.80Q432.77 27.57 431.52 28.71Q430.28 29.85 428.02 29.85L428.02 29.85Q425.56 29.85 424.43 29.09Q423.30 28.33 422.98 27.22Q422.66 26.10 422.65 24.99Q422.63 23.88 422.46 23.12Q422.28 22.35 421.40 22.35L421.40 22.35Q420.61 22.35 420.26 23.45Q419.91 24.55 419.82 25.81Q419.73 27.07 419.73 27.63ZM456.29 45.62L456.29 45.62L451.72 45.62Q449.82 45.62 448.66 44.47Q447.50 43.33 446.80 41.72L446.80 41.72L438.57 23.00Q438.10 21.97 437.78 21.42Q437.46 20.86 436.55 20.13L436.55 20.13Q435.87 19.57 435.51 19.07Q435.14 18.57 435.14 17.64L435.14 17.64Q435.14 16.32 436.00 15.66Q436.87 15 438.10 15L438.10 15L453.89 15Q455.12 15 455.82 15.70Q456.53 16.41 456.53 17.64L456.53 17.64Q456.53 18.69 455.97 19.25Q455.41 19.80 454.68 20.20Q453.95 20.60 453.39 21.12Q452.84 21.65 452.84 22.68L452.84 22.68Q452.84 23.32 453.00 23.95Q453.16 24.58 453.39 25.17L453.39 25.17L457.88 36.65L462.18 25.63Q462.42 24.99 462.58 24.33Q462.74 23.67 462.74 23.00L462.74 23.00Q462.74 21.83 462.20 21.25Q461.65 20.68 460.92 20.30Q460.19 19.92 459.65 19.35Q459.11 18.78 459.11 17.64L459.11 17.64Q459.11 16.32 459.93 15.66Q460.75 15 462.01 15L462.01 15L470.12 15Q471.38 15 472.22 15.64Q473.05 16.29 473.05 17.64L473.05 17.64Q473.05 18.72 472.66 19.20Q472.26 19.69 471.50 20.36L471.50 20.36Q470.38 21.36 469.93 22.18Q469.48 23.00 468.92 24.35L468.92 24.35Q467.04 28.77 465.20 33.24Q463.35 37.71 461.27 42.07L461.27 42.07Q460.48 43.68 459.34 44.65Q458.20 45.62 456.29 45.62ZM487.93 14.06L487.93 14.06Q489.13 14.06 489.79 14.88Q490.45 15.70 490.45 16.85L490.45 16.85L490.45 36.18Q490.45 37.00 490.53 37.84Q490.60 38.67 491.19 39.29L491.19 39.29Q491.95 40.11 492.46 40.58Q492.97 41.04 492.97 42.33L492.97 42.33Q492.97 43.62 492.17 44.31Q491.36 45 490.10 45L490.10 45L477.65 45Q476.39 45 475.58 44.33Q474.78 43.65 474.78 42.33L474.78 42.33Q474.78 41.07 475.28 40.56Q475.78 40.05 476.57 39.29L476.57 39.29Q477.15 38.70 477.23 37.82Q477.30 36.94 477.30 36.18L477.30 36.18L477.30 25.96Q477.30 25.37 477.21 24.74Q477.12 24.11 476.71 23.67L476.71 23.67Q476.60 23.53 476.43 23.44Q476.27 23.35 476.16 23.23L476.16 23.23Q475.51 22.56 474.97 22.13Q474.43 21.71 474.43 20.63L474.43 20.63Q474.43 19.45 475.16 18.81Q475.89 18.16 476.89 17.78L476.89 17.78L483.22 15.23Q484.33 14.79 485.53 14.43Q486.73 14.06 487.93 14.06ZM483.54 13.95L483.54 13.95Q481.66 13.95 479.76 13.39Q477.86 12.83 476.58 11.53Q475.31 10.22 475.31 8.00L475.31 8.00Q475.31 5.77 476.60 4.50Q477.88 3.22 479.79 2.70Q481.69 2.17 483.54 2.17L483.54 2.17Q485.38 2.17 487.30 2.70Q489.22 3.22 490.53 4.50Q491.83 5.77 491.83 8.00L491.83 8.00Q491.83 10.25 490.54 11.56Q489.25 12.86 487.33 13.40Q485.41 13.95 483.54 13.95ZM524.94 25.63L524.94 25.63Q524.94 28.24 523.40 29.59Q521.86 30.94 519.34 30.94L519.34 30.94L507.53 30.94Q508.21 33.46 509.94 35.17Q511.66 36.88 514.92 36.88L514.92 36.88Q516.21 36.88 517.48 36.34Q518.75 35.80 519.88 35.07Q521.01 34.34 521.86 33.79Q522.71 33.25 523.15 33.25L523.15 33.25Q524.00 33.25 524.38 33.85Q524.76 34.45 524.76 35.21L524.76 35.21Q524.76 37.88 523.51 39.89Q522.27 41.89 520.23 43.21Q518.20 44.53 515.78 45.19Q513.36 45.85 511.02 45.85L511.02 45.85Q506.42 45.85 502.90 43.95Q499.39 42.04 497.41 38.60Q495.43 35.16 495.43 30.50L495.43 30.50Q495.43 25.52 497.35 21.83Q499.27 18.13 502.88 16.10Q506.48 14.06 511.52 14.06L511.52 14.06Q515.00 14.06 518.07 15.38Q521.13 16.70 523.03 19.28Q524.94 21.86 524.94 25.63ZM507.01 26.43L507.01 26.43Q507.01 26.75 507.01 27.07L507.01 27.07L510.05 27.07Q511.17 27.07 511.58 26.56Q511.99 26.04 511.99 24.99L511.99 24.99Q511.99 24.29 511.81 23.14Q511.63 22.00 511.12 21.09Q510.61 20.19 509.64 20.19L509.64 20.19Q508.76 20.19 508.24 20.90Q507.71 21.62 507.45 22.69Q507.18 23.76 507.09 24.79Q507.01 25.81 507.01 26.43ZM546.64 45.62L546.64 45.62L542.34 45.62Q540.38 45.62 539.25 44.52Q538.12 43.42 537.39 41.72L537.39 41.72L529.33 23.20Q529.04 22.47 528.66 21.80Q528.28 21.12 527.66 20.60L527.66 20.60Q526.90 19.92 526.27 19.35Q525.64 18.78 525.64 17.64L525.64 17.64Q525.64 16.26 526.50 15.63Q527.37 15 528.63 15L528.63 15L543.77 15Q546.41 15 546.41 17.58L546.41 17.58Q546.41 18.60 545.90 19.22Q545.38 19.83 544.70 20.23Q544.01 20.63 543.50 21.04Q542.98 21.45 542.98 22.09L542.98 22.09Q542.98 22.73 543.29 23.58Q543.60 24.43 543.83 25.02L543.83 25.02L548.34 36.47L552.91 25.11L552.15 23.20Q551.77 22.24 551.33 21.58Q550.89 20.92 550.10 20.24L550.10 20.24Q549.37 19.60 549.08 19.09Q548.78 18.57 548.78 17.58L548.78 17.58Q548.78 15 551.42 15L551.42 15L566.01 15Q567.24 15 567.75 15.76Q568.27 16.52 568.27 17.64L568.27 17.64Q568.27 18.69 567.80 19.26Q567.33 19.83 566.71 20.20Q566.10 20.57 565.63 20.93Q565.16 21.30 565.16 21.94L565.16 21.94Q565.16 22.65 565.41 23.29Q565.66 23.94 565.89 24.58L565.89 24.58L570.32 36.59L574.13 25.63Q574.36 24.99 574.52 24.35Q574.68 23.70 574.68 23.03L574.68 23.03Q574.68 21.97 574.11 21.43Q573.54 20.89 572.78 20.49Q572.02 20.10 571.44 19.48Q570.87 18.87 570.87 17.64L570.87 17.64Q570.87 16.52 571.46 15.76Q572.04 15 573.22 15L573.22 15L582.27 15Q583.53 15 584.38 15.64Q585.23 16.29 585.23 17.64L585.23 17.64Q585.23 18.69 584.86 19.16Q584.50 19.63 583.73 20.24L583.73 20.24Q582.39 21.33 581.83 22.37Q581.27 23.41 580.66 24.96L580.66 24.96L573.92 42.07Q572.54 45.62 568.91 45.62L568.91 45.62L564.63 45.62Q562.70 45.62 561.54 44.50Q560.38 43.39 559.71 41.72L559.71 41.72L555.93 32.46L551.63 42.07Q550.89 43.68 549.69 44.65Q548.49 45.62 546.64 45.62ZM614.03 25.63L614.03 25.63Q614.03 28.24 612.49 29.59Q610.95 30.94 608.43 30.94L608.43 30.94L596.63 30.94Q597.30 33.46 599.03 35.17Q600.76 36.88 604.01 36.88L604.01 36.88Q605.30 36.88 606.57 36.34Q607.85 35.80 608.97 35.07Q610.10 34.34 610.95 33.79Q611.80 33.25 612.24 33.25L612.24 33.25Q613.09 33.25 613.47 33.85Q613.85 34.45 613.85 35.21L613.85 35.21Q613.85 37.88 612.61 39.89Q611.36 41.89 609.33 43.21Q607.29 44.53 604.87 45.19Q602.46 45.85 600.11 45.85L600.11 45.85Q595.51 45.85 592.00 43.95Q588.48 42.04 586.50 38.60Q584.53 35.16 584.53 30.50L584.53 30.50Q584.53 25.52 586.44 21.83Q588.36 18.13 591.97 16.10Q595.57 14.06 600.61 14.06L600.61 14.06Q604.10 14.06 607.16 15.38Q610.22 16.70 612.12 19.28Q614.03 21.86 614.03 25.63ZM596.10 26.43L596.10 26.43Q596.10 26.75 596.10 27.07L596.10 27.07L599.14 27.07Q600.26 27.07 600.67 26.56Q601.08 26.04 601.08 24.99L601.08 24.99Q601.08 24.29 600.90 23.14Q600.73 22.00 600.21 21.09Q599.70 20.19 598.73 20.19L598.73 20.19Q597.86 20.19 597.33 20.90Q596.80 21.62 596.54 22.69Q596.27 23.76 596.19 24.79Q596.10 25.81 596.10 26.43ZM632.54 27.63L632.54 27.63L632.54 36.18Q632.54 37.88 632.94 38.47Q633.33 39.05 635.03 39.40L635.03 39.40Q636.53 39.70 637.42 40.09Q638.31 40.49 638.31 42.33L638.31 42.33Q638.31 43.65 637.52 44.33Q636.73 45 635.44 45L635.44 45L619.97 45Q618.71 45 617.89 44.33Q617.07 43.65 617.07 42.33L617.07 42.33Q617.07 41.28 617.47 40.75Q617.87 40.22 618.38 39.80Q618.89 39.38 619.29 38.69Q619.68 38.00 619.68 36.59L619.68 36.59L619.68 25.96Q619.68 24.64 619.23 23.98Q618.77 23.32 618.20 22.94Q617.63 22.56 617.18 22.08Q616.72 21.59 616.72 20.63L616.72 20.63Q616.72 19.48 617.47 18.82Q618.22 18.16 619.18 17.78L619.18 17.78L626.51 14.88Q627.21 14.59 627.94 14.33Q628.68 14.06 629.47 14.06L629.47 14.06Q630.49 14.06 630.99 14.84Q631.49 15.62 631.68 16.63Q631.87 17.64 631.96 18.40L631.96 18.40Q632.04 18.93 632.13 19.45Q632.22 19.98 632.28 20.51L632.28 20.51Q633.19 17.81 635.08 15.94Q636.97 14.06 640.31 14.06L640.31 14.06Q642.68 14.06 644.04 15.23Q645.40 16.41 645.99 18.24Q646.58 20.07 646.58 22.12L646.58 22.12Q646.58 24.02 646.08 25.80Q645.58 27.57 644.33 28.71Q643.09 29.85 640.83 29.85L640.83 29.85Q638.37 29.85 637.25 29.09Q636.12 28.33 635.79 27.22Q635.47 26.10 635.46 24.99Q635.44 23.88 635.27 23.12Q635.09 22.35 634.21 22.35L634.21 22.35Q633.42 22.35 633.07 23.45Q632.72 24.55 632.63 25.81Q632.54 27.07 632.54 27.63Z"/></g>
            
          </svg>
        